<mxfile host="app.diagrams.net" agent="Mozilla/5.0 (Windows NT 10.0; Win64; x64) AppleWebKit/537.36 (KHTML, like Gecko) Chrome/129.0.0.0 Safari/537.36" version="24.7.17">
  <diagram name="第 1 页" id="LP3bWfWqnUC-ZKETgQTk">
    <mxGraphModel dx="2413" dy="1235" grid="0" gridSize="10" guides="1" tooltips="1" connect="1" arrows="1" fold="1" page="0" pageScale="1" pageWidth="827" pageHeight="1169" math="0" shadow="0">
      <root>
        <mxCell id="0" />
        <mxCell id="1" parent="0" />
        <mxCell id="FDIGQNt5iUhkTD9JbHyB-1" value="2d/3d scatter plot of DR&lt;div&gt;color by GC/non-GC&lt;/div&gt;" style="rounded=1;whiteSpace=wrap;html=1;" vertex="1" parent="1">
          <mxGeometry x="-23" y="97" width="235" height="67" as="geometry" />
        </mxCell>
        <mxCell id="FDIGQNt5iUhkTD9JbHyB-15" value="" style="edgeStyle=none;curved=1;rounded=0;orthogonalLoop=1;jettySize=auto;html=1;fontSize=12;startSize=8;endSize=8;entryX=0.5;entryY=1;entryDx=0;entryDy=0;" edge="1" parent="1" source="FDIGQNt5iUhkTD9JbHyB-14" target="FDIGQNt5iUhkTD9JbHyB-12">
          <mxGeometry relative="1" as="geometry">
            <mxPoint x="79" y="272" as="sourcePoint" />
          </mxGeometry>
        </mxCell>
        <mxCell id="FDIGQNt5iUhkTD9JbHyB-2" value="DR method selection" style="ellipse;whiteSpace=wrap;html=1;" vertex="1" parent="1">
          <mxGeometry x="43.5" y="-28" width="102" height="65" as="geometry" />
        </mxCell>
        <mxCell id="FDIGQNt5iUhkTD9JbHyB-3" value="" style="endArrow=classic;html=1;rounded=0;fontSize=12;startSize=8;endSize=8;curved=1;entryX=0.5;entryY=0;entryDx=0;entryDy=0;" edge="1" parent="1" source="FDIGQNt5iUhkTD9JbHyB-2" target="FDIGQNt5iUhkTD9JbHyB-1">
          <mxGeometry width="50" height="50" relative="1" as="geometry">
            <mxPoint x="209" y="224" as="sourcePoint" />
            <mxPoint x="259" y="174" as="targetPoint" />
          </mxGeometry>
        </mxCell>
        <mxCell id="FDIGQNt5iUhkTD9JbHyB-4" value="feature selection" style="ellipse;whiteSpace=wrap;html=1;" vertex="1" parent="1">
          <mxGeometry x="340" y="-137" width="102" height="65" as="geometry" />
        </mxCell>
        <mxCell id="FDIGQNt5iUhkTD9JbHyB-5" value="" style="endArrow=classic;html=1;rounded=0;fontSize=12;startSize=8;endSize=8;curved=1;entryX=0.5;entryY=0;entryDx=0;entryDy=0;exitX=0.5;exitY=1;exitDx=0;exitDy=0;" edge="1" parent="1" source="FDIGQNt5iUhkTD9JbHyB-4" target="FDIGQNt5iUhkTD9JbHyB-6">
          <mxGeometry width="50" height="50" relative="1" as="geometry">
            <mxPoint x="-152" y="-114" as="sourcePoint" />
            <mxPoint x="-79" y="-38" as="targetPoint" />
          </mxGeometry>
        </mxCell>
        <mxCell id="FDIGQNt5iUhkTD9JbHyB-6" value="2d/3d scatter plot of DR&lt;div&gt;color by selected features&lt;/div&gt;" style="rounded=1;whiteSpace=wrap;html=1;" vertex="1" parent="1">
          <mxGeometry x="233" y="-48" width="184" height="67" as="geometry" />
        </mxCell>
        <mxCell id="FDIGQNt5iUhkTD9JbHyB-11" value="shared scatter plot data" style="shape=flexArrow;endArrow=classic;startArrow=classic;html=1;rounded=0;fontSize=12;startSize=8;endSize=8;curved=1;entryX=0;entryY=1;entryDx=0;entryDy=0;exitX=1;exitY=0;exitDx=0;exitDy=0;" edge="1" parent="1" source="FDIGQNt5iUhkTD9JbHyB-1" target="FDIGQNt5iUhkTD9JbHyB-6">
          <mxGeometry width="100" height="100" relative="1" as="geometry">
            <mxPoint x="184" y="249" as="sourcePoint" />
            <mxPoint x="284" y="149" as="targetPoint" />
          </mxGeometry>
        </mxCell>
        <mxCell id="FDIGQNt5iUhkTD9JbHyB-12" value="histogram group by battery id&lt;div&gt;color by GC/non-GC&lt;/div&gt;" style="rounded=1;whiteSpace=wrap;html=1;" vertex="1" parent="1">
          <mxGeometry x="-233" y="262" width="235" height="67" as="geometry" />
        </mxCell>
        <mxCell id="FDIGQNt5iUhkTD9JbHyB-14" value="multi-feature selection" style="ellipse;whiteSpace=wrap;html=1;" vertex="1" parent="1">
          <mxGeometry x="-166.5" y="377" width="102" height="65" as="geometry" />
        </mxCell>
        <mxCell id="FDIGQNt5iUhkTD9JbHyB-16" value="record 1 : 1" style="shape=flexArrow;endArrow=classic;startArrow=classic;html=1;rounded=0;fontSize=12;startSize=8;endSize=8;curved=1;entryX=0.75;entryY=0;entryDx=0;entryDy=0;exitX=0.3;exitY=0.997;exitDx=0;exitDy=0;exitPerimeter=0;" edge="1" parent="1" source="FDIGQNt5iUhkTD9JbHyB-1" target="FDIGQNt5iUhkTD9JbHyB-12">
          <mxGeometry width="100" height="100" relative="1" as="geometry">
            <mxPoint x="199" y="230" as="sourcePoint" />
            <mxPoint x="416" y="230" as="targetPoint" />
          </mxGeometry>
        </mxCell>
        <mxCell id="FDIGQNt5iUhkTD9JbHyB-17" value="" style="edgeStyle=none;curved=1;rounded=0;orthogonalLoop=1;jettySize=auto;html=1;fontSize=12;startSize=8;endSize=8;entryX=0.5;entryY=1;entryDx=0;entryDy=0;exitX=0.5;exitY=0;exitDx=0;exitDy=0;" edge="1" parent="1" source="FDIGQNt5iUhkTD9JbHyB-19" target="FDIGQNt5iUhkTD9JbHyB-18">
          <mxGeometry relative="1" as="geometry">
            <mxPoint x="25" y="280" as="sourcePoint" />
          </mxGeometry>
        </mxCell>
        <mxCell id="FDIGQNt5iUhkTD9JbHyB-18" value="parallel coordinate" style="rounded=1;whiteSpace=wrap;html=1;" vertex="1" parent="1">
          <mxGeometry x="151" y="262" width="235" height="67" as="geometry" />
        </mxCell>
        <mxCell id="FDIGQNt5iUhkTD9JbHyB-19" value="multi-feature selection" style="ellipse;whiteSpace=wrap;html=1;" vertex="1" parent="1">
          <mxGeometry x="217.5" y="375" width="102" height="65" as="geometry" />
        </mxCell>
        <mxCell id="FDIGQNt5iUhkTD9JbHyB-20" value="record 1 : 1" style="shape=flexArrow;endArrow=classic;startArrow=classic;html=1;rounded=0;fontSize=12;startSize=8;endSize=8;curved=1;entryX=0.25;entryY=0;entryDx=0;entryDy=0;exitX=0.801;exitY=0.997;exitDx=0;exitDy=0;exitPerimeter=0;" edge="1" parent="1" target="FDIGQNt5iUhkTD9JbHyB-18" source="FDIGQNt5iUhkTD9JbHyB-1">
          <mxGeometry width="100" height="100" relative="1" as="geometry">
            <mxPoint x="155" y="175" as="sourcePoint" />
            <mxPoint x="426" y="240" as="targetPoint" />
          </mxGeometry>
        </mxCell>
        <mxCell id="FDIGQNt5iUhkTD9JbHyB-22" value="selected data can be used for" style="shape=flexArrow;endArrow=classic;html=1;rounded=0;fontSize=12;startSize=8;endSize=8;curved=1;exitX=1;exitY=0.5;exitDx=0;exitDy=0;entryX=0;entryY=0.5;entryDx=0;entryDy=0;" edge="1" parent="1" source="FDIGQNt5iUhkTD9JbHyB-1" target="FDIGQNt5iUhkTD9JbHyB-23">
          <mxGeometry width="50" height="50" relative="1" as="geometry">
            <mxPoint x="378" y="220" as="sourcePoint" />
            <mxPoint x="557" y="226" as="targetPoint" />
          </mxGeometry>
        </mxCell>
        <mxCell id="FDIGQNt5iUhkTD9JbHyB-23" value="2d/3d scatter plot of DR&lt;div&gt;color by ML result&lt;/div&gt;" style="rounded=1;whiteSpace=wrap;html=1;" vertex="1" parent="1">
          <mxGeometry x="628" y="98" width="184" height="67" as="geometry" />
        </mxCell>
        <mxCell id="FDIGQNt5iUhkTD9JbHyB-24" value="ML selection&lt;div&gt;(unsupervised)&lt;/div&gt;" style="ellipse;whiteSpace=wrap;html=1;" vertex="1" parent="1">
          <mxGeometry x="673" y="-2" width="102" height="65" as="geometry" />
        </mxCell>
        <mxCell id="FDIGQNt5iUhkTD9JbHyB-25" style="edgeStyle=none;curved=1;rounded=0;orthogonalLoop=1;jettySize=auto;html=1;exitX=0.5;exitY=1;exitDx=0;exitDy=0;entryX=0.5;entryY=0;entryDx=0;entryDy=0;fontSize=12;startSize=8;endSize=8;" edge="1" parent="1" source="FDIGQNt5iUhkTD9JbHyB-24" target="FDIGQNt5iUhkTD9JbHyB-23">
          <mxGeometry relative="1" as="geometry" />
        </mxCell>
        <mxCell id="FDIGQNt5iUhkTD9JbHyB-26" value="" style="shape=flexArrow;endArrow=classic;html=1;rounded=0;fontSize=12;startSize=8;endSize=8;curved=1;exitX=0.25;exitY=1;exitDx=0;exitDy=0;entryX=0.5;entryY=0;entryDx=0;entryDy=0;" edge="1" parent="1" source="FDIGQNt5iUhkTD9JbHyB-23" target="FDIGQNt5iUhkTD9JbHyB-28">
          <mxGeometry width="50" height="50" relative="1" as="geometry">
            <mxPoint x="279" y="130" as="sourcePoint" />
            <mxPoint x="628" y="216" as="targetPoint" />
          </mxGeometry>
        </mxCell>
        <mxCell id="FDIGQNt5iUhkTD9JbHyB-27" value="" style="shape=flexArrow;endArrow=classic;html=1;rounded=0;fontSize=12;startSize=8;endSize=8;curved=1;exitX=0.75;exitY=1;exitDx=0;exitDy=0;entryX=0.5;entryY=0;entryDx=0;entryDy=0;" edge="1" parent="1" source="FDIGQNt5iUhkTD9JbHyB-23" target="FDIGQNt5iUhkTD9JbHyB-30">
          <mxGeometry width="50" height="50" relative="1" as="geometry">
            <mxPoint x="766" y="206" as="sourcePoint" />
            <mxPoint x="810" y="219" as="targetPoint" />
          </mxGeometry>
        </mxCell>
        <mxCell id="FDIGQNt5iUhkTD9JbHyB-28" value="table&lt;div&gt;confusion matrix&lt;/div&gt;" style="rounded=1;whiteSpace=wrap;html=1;" vertex="1" parent="1">
          <mxGeometry x="562" y="243" width="120" height="60" as="geometry" />
        </mxCell>
        <mxCell id="FDIGQNt5iUhkTD9JbHyB-30" value="PRC curve" style="rounded=1;whiteSpace=wrap;html=1;" vertex="1" parent="1">
          <mxGeometry x="767" y="243" width="120" height="60" as="geometry" />
        </mxCell>
        <mxCell id="FDIGQNt5iUhkTD9JbHyB-31" style="edgeStyle=none;curved=1;rounded=0;orthogonalLoop=1;jettySize=auto;html=1;exitX=1;exitY=0.25;exitDx=0;exitDy=0;fontSize=12;startSize=8;endSize=8;" edge="1" parent="1" source="FDIGQNt5iUhkTD9JbHyB-30" target="FDIGQNt5iUhkTD9JbHyB-30">
          <mxGeometry relative="1" as="geometry" />
        </mxCell>
        <mxCell id="FDIGQNt5iUhkTD9JbHyB-32" value="data import button" style="ellipse;whiteSpace=wrap;html=1;" vertex="1" parent="1">
          <mxGeometry x="375" y="53" width="102" height="65" as="geometry" />
        </mxCell>
        <mxCell id="FDIGQNt5iUhkTD9JbHyB-34" value="selected data can be used for" style="shape=flexArrow;endArrow=classic;html=1;rounded=0;fontSize=12;startSize=8;endSize=8;curved=1;entryX=0;entryY=0.5;entryDx=0;entryDy=0;exitX=1;exitY=0.5;exitDx=0;exitDy=0;" edge="1" parent="1" source="FDIGQNt5iUhkTD9JbHyB-43" target="FDIGQNt5iUhkTD9JbHyB-1">
          <mxGeometry x="0.0034" width="50" height="50" relative="1" as="geometry">
            <mxPoint x="-317" y="131" as="sourcePoint" />
            <mxPoint x="-64.5" y="137" as="targetPoint" />
            <mxPoint as="offset" />
          </mxGeometry>
        </mxCell>
        <mxCell id="FDIGQNt5iUhkTD9JbHyB-35" value="" style="endArrow=none;dashed=1;html=1;dashPattern=1 3;strokeWidth=2;rounded=0;fontSize=12;startSize=8;endSize=8;curved=1;" edge="1" parent="1">
          <mxGeometry width="50" height="50" relative="1" as="geometry">
            <mxPoint x="-281" y="-182" as="sourcePoint" />
            <mxPoint x="-281" y="434" as="targetPoint" />
          </mxGeometry>
        </mxCell>
        <mxCell id="FDIGQNt5iUhkTD9JbHyB-36" value="" style="endArrow=none;dashed=1;html=1;dashPattern=1 3;strokeWidth=2;rounded=0;fontSize=12;startSize=8;endSize=8;curved=1;" edge="1" parent="1">
          <mxGeometry width="50" height="50" relative="1" as="geometry">
            <mxPoint x="519" y="-186" as="sourcePoint" />
            <mxPoint x="519" y="430" as="targetPoint" />
          </mxGeometry>
        </mxCell>
        <mxCell id="FDIGQNt5iUhkTD9JbHyB-38" value="Visualization analytics" style="text;strokeColor=none;fillColor=none;html=1;align=center;verticalAlign=middle;whiteSpace=wrap;rounded=0;fontSize=16;" vertex="1" parent="1">
          <mxGeometry x="-266.5" y="-188" width="202" height="44" as="geometry" />
        </mxCell>
        <mxCell id="FDIGQNt5iUhkTD9JbHyB-39" value="Machine learning" style="text;strokeColor=none;fillColor=none;html=1;align=center;verticalAlign=middle;whiteSpace=wrap;rounded=0;fontSize=16;" vertex="1" parent="1">
          <mxGeometry x="535" y="-188" width="202" height="44" as="geometry" />
        </mxCell>
        <mxCell id="FDIGQNt5iUhkTD9JbHyB-40" value="Data process" style="text;strokeColor=none;fillColor=none;html=1;align=center;verticalAlign=middle;whiteSpace=wrap;rounded=0;fontSize=16;" vertex="1" parent="1">
          <mxGeometry x="-544" y="-188" width="202" height="44" as="geometry" />
        </mxCell>
        <mxCell id="FDIGQNt5iUhkTD9JbHyB-43" value="csv&lt;div&gt;processed via Pandas&lt;/div&gt;" style="rounded=1;whiteSpace=wrap;html=1;" vertex="1" parent="1">
          <mxGeometry x="-495" y="97" width="120" height="60" as="geometry" />
        </mxCell>
      </root>
    </mxGraphModel>
  </diagram>
</mxfile>
